Coordinates
version=1
nRows=14
nColumns=42
inDegrees=yes

Units are S.I. units (second, meters, Newtons, ...)
If the header above contains a line with 'inDegrees', this indicates whether rotational values are in degrees (yes) or radians (no).

endheader
time	pelvis_tilt	pelvis_list	pelvis_rotation	pelvis_tx	pelvis_ty	pelvis_tz	hip_flexion_r	hip_adduction_r	hip_rotation_r	knee_angle_r	knee_adduction_r	knee_angle_r_beta	ankle_angle_r	subtalar_angle_r	mtp_angle_r	hip_flexion_l	hip_adduction_l	hip_rotation_l	knee_angle_l	knee_adduction_l	knee_angle_l_beta	ankle_angle_l	subtalar_angle_l	mtp_angle_l	lumbar_extension	lumbar_bending	lumbar_rotation	arm_flex_r	arm_add_r	arm_rot_r	elbow_flex_r	pro_sup_r	wrist_flex_r	wrist_dev_r	arm_flex_l	arm_add_l	arm_rot_l	elbow_flex_l	pro_sup_l	wrist_flex_l	wrist_dev_l
      1.75000000	     10.52211319	      2.33110519	     -1.58961756	     -0.46380634	      0.90866707	      0.19833382	     21.81345351	     -4.83961061	     -1.63048906	     61.17614710	      1.15546031	      1.06772519	      8.05941625	     -7.71625280	     -7.55660592	     -2.21867131	      6.74978675	    -18.42241827	     27.64807559	     -4.29472261	      0.48254995	     25.95021630	     23.12035512	     -7.55660592	    -23.84514697	      0.14077638	     -4.43078067	      1.21644991	     -8.44268089	    -22.37719397	     29.91273055	     90.00000001	      0.00000000	      0.00000000	     -1.96534502	     -8.44708946	    -21.30833071	     38.62592564	     90.00000001	      0.00000000	      0.00000000
      1.76000000	     10.70999907	      2.16127813	     -1.26204453	     -0.45609900	      0.90899493	      0.19805368	     21.95322210	     -4.73359520	     -2.74581867	     58.19349246	      0.65168086	      1.01566805	      9.40597856	     -4.43197871	     -7.55332444	     -3.21352507	      6.50660430	    -18.43835874	     27.27832732	     -4.26081783	      0.47609663	     26.42549243	     23.98908810	     -7.55332444	    -24.14700639	      0.48570646	     -4.74046148	      0.73298913	     -8.43634005	    -22.61878598	     30.29106206	     90.00000001	      0.00000000	      0.00000000	     -1.74945057	     -8.64284216	    -20.60685520	     38.62210443	     90.00000001	      0.00000000	      0.00000000
      1.77000000	     10.37574987	      2.16326103	     -1.01224003	     -0.44897428	      0.90807538	      0.19786762	     22.87546954	     -4.75018699	     -2.55841548	     55.51123311	      1.11638181	      0.96885379	      9.70670280	     -3.53366911	     -7.55232599	     -3.38346617	      6.63882015	    -18.24719254	     27.17823054	     -4.54585057	      0.47434961	     26.72865687	     23.92344155	     -7.55232599	    -23.90758923	      0.61648354	     -5.05615828	      0.30843351	     -8.40623409	    -22.66920657	     30.52667311	     90.00000001	      0.00000000	      0.00000000	     -1.54923120	     -8.75473972	    -20.43758703	     38.70458041	     90.00000001	      0.00000000	      0.00000000
      1.78000000	     10.55317923	      2.02052457	     -0.72336177	     -0.44108280	      0.90810525	      0.19784925	     22.89100910	     -4.67540565	     -3.64247670	     52.39799925	      0.75294311	      0.91451761	     11.00415059	     -0.11977209	     -7.54924826	     -4.37530888	      6.34746393	    -18.45814793	     26.82643093	     -4.50410686	      0.46820955	     27.24714763	     25.04653001	     -7.54924826	    -24.16956924	      0.88879532	     -5.27075128	     -0.18565513	     -8.35838082	    -22.98291813	     30.81306482	     90.00000001	      0.00000000	      0.00000000	     -1.30493154	     -8.89019101	    -19.98810750	     38.66843669	     90.00000001	      0.00000000	      0.00000000
      1.79000000	     10.40487445	      2.00083163	     -0.53615309	     -0.43362783	      0.90731007	      0.19797872	     23.38634531	     -4.69818948	     -3.61942447	     49.52793334	      1.21533394	      0.86442551	     11.58413511	      1.28653830	     -7.54775318	     -4.86374127	      6.27339422	    -18.42053778	     26.68171369	     -4.50308069	      0.46568375	     27.72279079	     25.25646994	     -7.54775318	    -24.10318828	      0.99470378	     -5.46476674	     -0.60788016	     -8.30856763	    -23.11990489	     31.00379330	     90.00000001	      0.00000000	      0.00000000	     -1.06485880	     -8.99141444	    -19.81326608	     38.61496789	     90.00000001	      0.00000000	      0.00000000
      1.80000000	      9.95144164	      2.26265559	     -0.40203903	     -0.42615858	      0.90564006	      0.19824696	     24.49079263	     -5.02134748	     -3.78815377	     47.23962669	      1.41658834	      0.82448702	     11.71204426	      1.73012067	     -7.54712475	     -4.93417087	      6.48715417	    -18.42912376	     26.65257686	     -4.46377860	      0.46517522	     27.78213634	     25.15018072	     -7.54712475	    -23.66445032	      0.72551457	     -5.64096066	     -1.12813569	     -8.19733742	    -23.15621210	     31.09526905	     90.00000001	      0.00000000	      0.00000000	     -0.94504453	     -9.09554383	    -19.74143678	     38.79515884	     90.00000001	      0.00000000	      0.00000000
      1.81000000	     10.25750549	      1.91989965	     -0.05211057	     -0.41810818	      0.90567926	      0.19828465	     24.01591846	     -4.80485716	     -5.16232455	     43.98855341	      1.19498609	      0.76774509	     13.02780039	      5.95055638	     -7.54383280	     -6.05989809	      5.94820805	    -18.61678751	     26.33261380	     -4.52332605	      0.45959081	     28.54315552	     26.76474549	     -7.54383280	    -24.07393249	      1.25787960	     -5.79227855	     -1.45930291	     -8.12607233	    -23.77202394	     31.22469992	     90.00000001	      0.00000000	      0.00000000	     -0.60690625	     -9.11373360	    -19.51234701	     38.60736590	     90.00000001	      0.00000000	      0.00000000
      1.82000000	     10.14875040	      1.90601176	      0.12595461	     -0.41045654	      0.90465157	      0.19863870	     24.31423793	     -4.94479172	     -5.47269175	     41.45678192	      1.70227099	      0.72355734	     13.42641415	      7.05246559	     -7.54254591	     -6.58595246	      5.78606237	    -18.49156874	     26.25963869	     -4.37910643	      0.45831716	     28.98813715	     26.90056736	     -7.54254591	    -24.03640379	      1.32819338	     -5.87142874	     -1.84558348	     -8.04348785	    -23.96366239	     31.24148315	     90.00000001	      0.00000000	      0.00000000	     -0.31410900	     -9.15157521	    -19.44568703	     38.50059733	     90.00000001	      0.00000000	      0.00000000
      1.83000000	     10.14023414	      1.82115578	      0.35063013	     -0.40258618	      0.90374966	      0.19904187	     24.41243248	     -5.03636636	     -6.48713605	     39.07740398	      1.84298543	      0.68202936	     13.85969212	      8.80898638	     -7.54089685	     -7.24496566	      5.49764621	    -18.41188418	     26.17181327	     -4.22712991	      0.45678431	     29.39365424	     27.39730006	     -7.54089685	    -24.09202785	      1.47542997	     -5.92613789	     -2.19396983	     -7.94797363	    -24.38130587	     31.19488385	     90.00000001	      0.00000000	      0.00000000	     -0.02524622	     -9.18052106	    -19.46051322	     38.41672220	     90.00000001	      0.00000000	      0.00000000
      1.84000000	      9.79085550	      2.07305592	      0.37563288	     -0.39481656	      0.90183577	      0.19973131	     25.29725973	     -5.54589536	     -7.09918233	     37.71256822	      2.26602395	      0.65820848	     13.92871954	      8.91305145	     -7.54042701	     -7.41354941	      5.60575500	    -18.43349782	     26.27933825	     -4.05891110	      0.45866098	     29.41963449	     27.17416811	     -7.54042701	    -23.75404082	      1.15427295	     -5.87319061	     -2.66092225	     -7.79737022	    -24.39267214	     31.14682651	     90.00000001	      0.00000000	      0.00000000	      0.12358659	     -9.20632854	    -19.42689754	     38.56990419	     90.00000001	      0.00000000	      0.00000000
      1.85000000	     10.11757638	      1.74191105	      0.81739441	     -0.38658635	      0.90163634	      0.19972963	     24.51629514	     -5.56009272	     -8.70196180	     35.26155369	      2.55306224	      0.61543021	     14.42425699	     11.65139710	     -7.53852654	     -8.46045643	      5.07563939	    -18.11631293	     26.17822935	     -4.04633592	      0.45689629	     30.19386768	     28.07358170	     -7.53852654	    -24.14383967	      1.70912170	     -6.08530659	     -2.77965365	     -7.69651488	    -25.25243163	     30.90136591	     90.00000001	      0.00000000	      0.00000000	      0.49651804	     -9.08775106	    -19.58220256	     38.19153388	     90.00000001	      0.00000000	      0.00000000
      1.86000000	     10.00895191	      1.80430217	      1.03463800	     -0.37862726	      0.90025942	      0.20012058	     24.66495961	     -6.00346772	     -9.49647518	     33.92812870	      3.24499447	      0.59215755	     14.56793015	     12.07377952	     -7.53789131	     -8.90732765	      5.08129762	    -17.87648532	     26.20096107	     -4.13689613	      0.45729304	     30.66043697	     28.16315130	     -7.53789131	    -24.06533020	      1.69291569	     -6.14621294	     -3.06632950	     -7.59065405	    -25.42568871	     30.63493127	     90.00000001	      0.00000000	      0.00000000	      0.78485575	     -9.07869484	    -19.58748475	     38.05045349	     90.00000001	      0.00000000	      0.00000000
      1.87000000	     10.07401953	      1.76734340	      1.27142743	     -0.37035294	      0.89916896	      0.20057100	     24.49720456	     -6.32465689	    -10.61560257	     32.84667796	      3.77976684	      0.57328268	     14.62416945	     12.49436374	     -7.53735700	     -9.61363269	      4.90595681	    -17.70374070	     26.18056777	     -4.14058618	      0.45693711	     31.12317877	     28.38722065	     -7.53735700	    -24.14392181	      1.80170023	     -6.18722705	     -3.28072451	     -7.49231345	    -25.74991861	     30.30357613	     90.00000001	      0.00000000	      0.00000000	      1.05397221	     -9.02643411	    -19.67643728	     37.86434771	     90.00000001	      0.00000000	      0.00000000
      1.88000000	      9.93501793	      1.85706153	      1.21525850	     -0.36209763	      0.89745903	      0.20174027	     24.82948092	     -6.49500715	    -11.19943581	     32.46569005	      4.07889047	      0.56663319	     14.65525253	     12.45198433	     -7.53729218	    -10.05066520	      4.88149108	    -17.74697183	     26.27390704	     -4.11594158	      0.45856619	     31.19620649	     28.40430889	     -7.53729218	    -24.00263186	      1.61691597	     -5.99310211	     -3.60402910	     -7.37173676	    -25.81573570	     30.09866789	     90.00000001	      0.00000000	      0.00000000	      1.16103790	     -9.02065621	    -19.70856846	     37.91515569	     90.00000001	      0.00000000	      0.00000000
